<svg xmlns="http://www.w3.org/2000/svg" viewBox="0 0 53.22 61.03"><defs><style>.cls-1{fill:#191e25;}</style></defs><title>ico-news</title><g id="Layer_2" data-name="Layer 2"><g id="SAFE_AREA" data-name="SAFE AREA"><path class="cls-1" d="M26.61,61a1.26,1.26,0,0,1-.62-.17L10.75,52.07A1.25,1.25,0,0,1,10.12,51V33.4a1.25,1.25,0,0,1,.63-1.08L26,23.53a1.27,1.27,0,0,1,1.25,0l15.24,8.79a1.26,1.26,0,0,1,.62,1.08V51a1.26,1.26,0,0,1-.62,1.08L27.24,60.86A1.29,1.29,0,0,1,26.61,61Zm-14-10.77,14,8.08,14-8.08V34.13l-14-8.07-14,8.07Z"/><path class="cls-1" d="M26.61,61a1.26,1.26,0,0,1-.62-.17L5.75,49.18a1.24,1.24,0,0,1-.63-1.08V24.75a1.26,1.26,0,0,1,.63-1.09L26,12a1.22,1.22,0,0,1,1.25,0L47.48,23.66a1.28,1.28,0,0,1,.62,1.09V48.1a1.25,1.25,0,0,1-.62,1.08L27.24,60.86A1.29,1.29,0,0,1,26.61,61Zm-19-13.65,19,11,19-11V25.47l-19-11-19,11Z"/><path class="cls-1" d="M26.61,61a1.26,1.26,0,0,1-.62-.17L.63,46.23A1.25,1.25,0,0,1,0,45.15V15.88A1.24,1.24,0,0,1,.63,14.8L26,.17a1.22,1.22,0,0,1,1.25,0L52.6,14.8a1.23,1.23,0,0,1,.62,1.08V45.15a1.24,1.24,0,0,1-.62,1.08L27.24,60.86A1.29,1.29,0,0,1,26.61,61ZM2.5,44.42,26.61,58.33,50.72,44.42V16.6L26.61,2.69,2.5,16.6Z"/></g></g></svg>