<svg xmlns="http://www.w3.org/2000/svg" viewBox="0 0 24 24"><defs><style>.cls-1{isolation:isolate;}.cls-2{fill:#fff;fill-rule:evenodd;}</style></defs><title>ico-tumblr</title><g id="Layer_2" data-name="Layer 2"><g id="SAFE_AREA" data-name="SAFE AREA"><g class="cls-1"><path class="cls-2" d="M0,24H24V0H0Zm18-5.4-1-2.94-.07,0H14.76c-.1,0-.11-.32-.11-.42V11.39l.07-.07h2.55l.06-.06V7.41l-.06-.06H14.73l-.07-.07V4.07L14.6,4H9.83a.78.78,0,0,0-.76.69A3.66,3.66,0,0,1,6.22,8L6,8,6,8.1v3.16l.07.06H8v4.11C8,18.54,10,20,14,20c1.6,0,3.36-.57,3.89-1.26Z"/></g></g></g></svg>