<svg xmlns="http://www.w3.org/2000/svg" viewBox="0 0 24 24"><defs><style>.cls-1{fill:#fff;}</style></defs><title>ico-twitter</title><g id="Layer_2" data-name="Layer 2"><g id="SAFE_AREA" data-name="SAFE AREA"><path class="cls-1" d="M0,0V24H24V0ZM18.86,9.24A9.34,9.34,0,0,1,4.5,17.53a6.63,6.63,0,0,0,4.86-1.36,3.3,3.3,0,0,1-3.07-2.28,3.23,3.23,0,0,0,1.49-.06,3.3,3.3,0,0,1-2.64-3.26A3.17,3.17,0,0,0,6.63,11a3.28,3.28,0,0,1-1-4.38A9.32,9.32,0,0,0,12.38,10,3.28,3.28,0,0,1,18,7a6.62,6.62,0,0,0,2.09-.8,3.35,3.35,0,0,1-1.44,1.82,6.64,6.64,0,0,0,1.88-.52A6.79,6.79,0,0,1,18.86,9.24Z"/></g></g></svg>