<svg xmlns="http://www.w3.org/2000/svg" viewBox="0 0 53.38 61.29"><defs><style>.cls-1{fill:#191e25;}</style></defs><title>ico-anounce</title><g id="Layer_2" data-name="Layer 2"><g id="SAFE_AREA" data-name="SAFE AREA"><path class="cls-1" d="M26.89,47.43,12.37,39.06l0-16.78,14.55-8.41,14.52,8.37,0,16.78ZM14.57,37.79l12.31,7.1,12.35-7.14,0-14.24-12.32-7.1L14.59,23.55Z"/><path class="cls-1" d="M26.7,61.29a1.08,1.08,0,0,1-.55-.15L.56,46.36a1.1,1.1,0,0,1-.55-1V15.86a1.1,1.1,0,0,1,.55-.95L26.13.15a1.08,1.08,0,0,1,1.1,0L52.82,14.93a1.09,1.09,0,0,1,.55,1V45.42a1.11,1.11,0,0,1-.55,1L27.25,61.14A1.08,1.08,0,0,1,26.7,61.29ZM2.21,44.77,26.7,58.92,51.18,44.79V16.52L26.68,2.37,2.2,16.5Z"/><rect class="cls-1" x="39.24" y="9.16" width="2.2" height="42.97"/><rect class="cls-1" x="12.24" y="8.66" width="2.2" height="43.95"/></g></g></svg>