<svg xmlns="http://www.w3.org/2000/svg" viewBox="0 0 52.96 60.98"><defs><style>.cls-1{fill:#191e25;}</style></defs><title>ico-offers</title><g id="Layer_2" data-name="Layer 2"><g id="SAFE_AREA" data-name="SAFE AREA"><path class="cls-1" d="M26.52,61a1.08,1.08,0,0,1-.55-.15L.66,46.13a1.09,1.09,0,0,1-.55-1V15.79a1.1,1.1,0,0,1,.55-.95L26,.15a1.1,1.1,0,0,1,1.11,0L52.39,14.84a1.09,1.09,0,0,1,.54.95V45.18a1.08,1.08,0,0,1-.54,1L27.08,60.83A1.12,1.12,0,0,1,26.52,61ZM2.31,44.55,26.52,58.6,50.74,44.55V16.43L26.52,2.37,2.31,16.43Z"/><path class="cls-1" d="M51.86,46.28a1.12,1.12,0,0,1-.73-.27L34.57,31.31a1.12,1.12,0,0,1-.37-.82,1.09,1.09,0,0,1,.37-.82L51.13,15a1.12,1.12,0,0,1,1.19-.18,1.1,1.1,0,0,1,.64,1V45.18a1.1,1.1,0,0,1-.64,1A1.22,1.22,0,0,1,51.86,46.28ZM37,30.49l13.8,12.25V18.24Z"/><path class="cls-1" d="M1.21,46.28a1.12,1.12,0,0,1-.44-.09,1.12,1.12,0,0,1-.66-1C-.11,15.56,0,15.46.43,15a1.13,1.13,0,0,1,1.51,0l16.57,14.7a1.08,1.08,0,0,1,.36.82,1.11,1.11,0,0,1-.36.82L1.94,46A1,1,0,0,1,1.21,46.28Zm1-28.11c0,4.68,0,15.81.07,24.58L16.12,30.49Z"/><path class="cls-1" d="M26.55,61a1.08,1.08,0,0,1-.55-.15L.66,46.13a1.1,1.1,0,0,1-.18-1.77L17,29.67a1.14,1.14,0,0,1,.74-.28H35.3a1.09,1.09,0,0,1,.73.28L52.59,44.36a1.09,1.09,0,0,1,.37.93,1.11,1.11,0,0,1-.54.84L27.11,60.83A1.15,1.15,0,0,1,26.55,61ZM3.08,45,26.55,58.6,50,45,34.88,31.59H18.19Z"/><path class="cls-1" d="M35.3,31.59H17.78a1.14,1.14,0,0,1-.74-.28L.48,16.62a1.11,1.11,0,0,1,.18-1.78L26,.15a1.1,1.1,0,0,1,1.11,0L52.42,14.84a1.13,1.13,0,0,1,.54.84,1.11,1.11,0,0,1-.37.94L36,31.31A1.09,1.09,0,0,1,35.3,31.59Zm-17.11-2.2H34.88L50,16,26.52,2.37,3.08,16Z"/></g></g></svg>