<svg xmlns="http://www.w3.org/2000/svg" viewBox="0 0 24 24"><defs><style>.cls-1{fill:#fff;fill-rule:evenodd;}</style></defs><title>ico-youtube</title><g id="Layer_2" data-name="Layer 2"><g id="SAFE_AREA" data-name="SAFE AREA"><path class="cls-1" d="M13.89,14.15a1,1,0,0,0-.72.41V12.67h-.81v5.88h.81v-.34a.93.93,0,0,0,.77.39c.53,0,.73-.42.73-1V15.24C14.67,14.65,14.48,14.15,13.89,14.15Zm-.05,3.38a.47.47,0,0,1-.07.3.33.33,0,0,1-.41,0l-.19-.15V15l.17-.13a.33.33,0,0,1,.42.07.5.5,0,0,1,.08.33ZM11.13,9V6.88c0-.25.11-.43.35-.43s.37.18.37.43V9c0,.25-.12.43-.35.43A.38.38,0,0,1,11.13,9ZM9.28,13.52H8.34v5H7.43v-5H6.49v-.85H9.28Zm1.48.69h.81v4.34h-.81v-.48a1.86,1.86,0,0,1-.46.4c-.44.25-1,.24-1-.64V14.21h.8v3.32c0,.18,0,.3.22.3s.38-.21.47-.33ZM0,24H24V0H0ZM13.43,5.62h.85V9.11c0,.18.05.31.23.31s.39-.21.5-.34V5.62h.84v4.55H15v-.5a1.34,1.34,0,0,1-1,.57c-.46,0-.6-.36-.6-.81V5.62Zm-1.93,0a1.19,1.19,0,0,1,1.21,1.23V9a1.16,1.16,0,0,1-1.21,1.22A1.1,1.1,0,0,1,10.26,9V6.81A1.17,1.17,0,0,1,11.5,5.58ZM8.06,4l.66,2.47L9.33,4h1L9.19,7.67v2.5H8.24V7.67L7.1,4Zm8.49,15.91c-1.73.12-7.37.12-9.11,0s-2.09-1.27-2.11-4.24.24-4.12,2.11-4.25,7.38-.12,9.11,0,2.1,1.27,2.12,4.25S18.43,19.78,16.55,19.91Zm0-5.81a1.19,1.19,0,0,0-1.23,1.27v2c0,.78.4,1.34,1.17,1.34s1.2-.5,1.2-1.34V17h-.82v.31c0,.37,0,.6-.36.6s-.36-.28-.36-.6v-.82h1.54V15.37C17.65,14.59,17.28,14.1,16.51,14.1Zm.32,1.71h-.72v-.44c0-.3.07-.51.36-.51s.36.21.36.51Z"/></g></g></svg>